<svg xmlns="http://www.w3.org/2000/svg" width="1200" height="760" viewBox="0 0 1200 760">
  <rect width="1200" height="760" fill="#f6f3ff"/>
  <text x="48" y="58" font-family="Arial" font-size="34" font-weight="700" fill="#20184a">Week 1: Web Foundations &amp; Interactivity</text>
  <text x="48" y="92" font-family="Arial" font-size="18" fill="#5d5a7a">Concrete outputs for the Key Concepts code examples</text>

  <rect x="48" y="130" width="520" height="250" rx="26" fill="#ffffff" stroke="#ded7ff"/>
  <rect x="48" y="130" width="520" height="42" rx="26" fill="#6c38ff"/>
  <text x="72" y="158" font-family="Arial" font-size="16" fill="#ffffff">Browser: HTML structure</text>
  <text x="88" y="220" font-family="Arial" font-size="36" font-weight="700" fill="#24185c">My Portfolio</text>
  <text x="88" y="265" font-family="Arial" font-size="22" fill="#3e3b60">I am learning web development.</text>
  <rect x="88" y="300" width="130" height="42" rx="18" fill="#6c38ff"/>
  <text x="116" y="327" font-family="Arial" font-size="18" fill="#ffffff">Click Me</text>

  <rect x="632" y="130" width="520" height="250" rx="26" fill="#ffffff" stroke="#ded7ff"/>
  <rect x="632" y="130" width="520" height="42" rx="26" fill="#2e73ff"/>
  <text x="656" y="158" font-family="Arial" font-size="16" fill="#ffffff">Browser: CSS styling</text>
  <rect x="710" y="218" width="360" height="100" rx="20" fill="#cfe3ff" stroke="#2e73ff" stroke-width="3"/>
  <text x="780" y="278" font-family="Arial" font-size="28" font-weight="700" fill="#174185">.card styled by CSS</text>

  <rect x="48" y="430" width="520" height="250" rx="26" fill="#ffffff" stroke="#ded7ff"/>
  <rect x="48" y="430" width="520" height="42" rx="26" fill="#ff5a98"/>
  <text x="72" y="458" font-family="Arial" font-size="16" fill="#ffffff">Browser: JavaScript click event</text>
  <text x="88" y="525" font-family="Arial" font-size="23" fill="#464064">Before click: Click the button to change this message.</text>
  <path d="M92 555 L470 555" stroke="#ddd6ff" stroke-width="4"/>
  <text x="88" y="602" font-family="Arial" font-size="28" font-weight="700" fill="#cc2f72">After click: The message has changed!</text>

  <rect x="632" y="430" width="520" height="250" rx="26" fill="#151828" stroke="#ded7ff"/>
  <rect x="632" y="430" width="520" height="42" rx="26" fill="#1f2340"/>
  <text x="656" y="458" font-family="Arial" font-size="16" fill="#ffffff">Browser: classList.toggle("dark-theme")</text>
  <text x="700" y="548" font-family="Arial" font-size="40" font-weight="700" fill="#ffffff">Dark theme ON</text>
  <rect x="700" y="582" width="190" height="48" rx="22" fill="#6c38ff"/>
  <text x="728" y="613" font-family="Arial" font-size="19" fill="#ffffff">Change Theme</text>
</svg>