<svg xmlns="http://www.w3.org/2000/svg" width="1200" height="760" viewBox="0 0 1200 760">
  <rect width="1200" height="760" fill="#fff8df"/>
  <text x="48" y="58" font-family="Arial" font-size="34" font-weight="700" fill="#2c2455">Week 2: Logic, Conditionals &amp; User Input</text>
  <text x="48" y="92" font-family="Arial" font-size="18" fill="#665f80">Concrete outputs for input, variables, conditions, functions, and results</text>

  <rect x="48" y="130" width="520" height="250" rx="26" fill="#ffffff" stroke="#ffe08a"/>
  <text x="78" y="174" font-family="Arial" font-size="22" font-weight="700" fill="#2c2455">Input value + variable</text>
  <rect x="78" y="205" width="360" height="50" rx="16" fill="#f8fbff" stroke="#c9d6ee"/>
  <text x="98" y="238" font-family="Arial" font-size="20" fill="#343a50">Sarah</text>
  <rect x="78" y="275" width="150" height="44" rx="18" fill="#6c38ff"/>
  <text x="112" y="303" font-family="Arial" font-size="18" fill="#ffffff">Greet Me</text>
  <text x="78" y="350" font-family="Arial" font-size="30" font-weight="700" fill="#2c7a47">Hello, Sarah!</text>

  <rect x="632" y="130" width="520" height="250" rx="26" fill="#ffffff" stroke="#ffe08a"/>
  <text x="662" y="174" font-family="Arial" font-size="22" font-weight="700" fill="#2c2455">if / else answer check</text>
  <text x="662" y="220" font-family="Arial" font-size="21" fill="#343a50">User typed: CSS</text>
  <rect x="662" y="250" width="390" height="64" rx="18" fill="#eafff1" stroke="#59c987"/>
  <text x="690" y="291" font-family="Arial" font-size="24" font-weight="700" fill="#1d7a43">Correct! CSS controls style.</text>

  <rect x="48" y="430" width="520" height="250" rx="26" fill="#ffffff" stroke="#ffe08a"/>
  <text x="78" y="474" font-family="Arial" font-size="22" font-weight="700" fill="#2c2455">else if recommendation</text>
  <text x="78" y="520" font-family="Arial" font-size="21" fill="#343a50">choice === "technology"</text>
  <rect x="78" y="550" width="400" height="76" rx="20" fill="#e9f2ff" stroke="#4a7cff"/>
  <text x="105" y="595" font-family="Arial" font-size="25" font-weight="700" fill="#174185">Build a mini website!</text>

  <rect x="632" y="430" width="520" height="250" rx="26" fill="#ffffff" stroke="#ffe08a"/>
  <text x="662" y="474" font-family="Arial" font-size="22" font-weight="700" fill="#2c2455">Number(input.value) score feedback</text>
  <text x="662" y="520" font-family="Arial" font-size="21" fill="#343a50">score = 86</text>
  <rect x="662" y="550" width="420" height="76" rx="20" fill="#fff2c7" stroke="#f0b429"/>
  <text x="690" y="595" font-family="Arial" font-size="27" font-weight="700" fill="#8a5b00">Great work!</text>
</svg>